<?xml version="1.0" encoding="UTF-8" standalone="no"?>
<!-- Created with Inkscape (http://www.inkscape.org/) -->

<svg
   width="39.687mm"
   height="5.072mm"
   viewBox="0 0 39.687 5.072"
   version="1.1"
   id="svg5"
   inkscape:version="1.2.2 (732a01da63, 2022-12-09)"
   sodipodi:docname="logo.svg"
   xmlns:inkscape="http://www.inkscape.org/namespaces/inkscape"
   xmlns:sodipodi="http://sodipodi.sourceforge.net/DTD/sodipodi-0.dtd"
   xmlns="http://www.w3.org/2000/svg"
   xmlns:svg="http://www.w3.org/2000/svg">
  <sodipodi:namedview
     id="namedview7"
     pagecolor="#ffffff"
     bordercolor="#000000"
     borderopacity="0.25"
     inkscape:showpageshadow="2"
     inkscape:pageopacity="0.0"
     inkscape:pagecheckerboard="0"
     inkscape:deskcolor="#d1d1d1"
     inkscape:document-units="mm"
     showgrid="false"
     inkscape:zoom="1.0544998"
     inkscape:cx="78.710306"
     inkscape:cy="298.24568"
     inkscape:window-width="1379"
     inkscape:window-height="1040"
     inkscape:window-x="421"
     inkscape:window-y="524"
     inkscape:window-maximized="0"
     inkscape:current-layer="layer1" />
  <defs
     id="defs2" />
  <g
     inkscape:label="Warstwa 1"
     inkscape:groupmode="layer"
     id="layer1">
    <g
       id="g1768"
       transform="matrix(0.45493661,0,0,0.45493661,5.11879e-5,5.286976e-5)">
      <g
         aria-label="KANTOR ZY$K"
         id="text976"
         style="font-weight:bold;font-size:11.2977px;font-family:'Bookman Old Style';-inkscape-font-specification:'Bookman Old Style Bold';stroke:#ddac22;stroke-width:0.888206;stroke-dasharray:none;stop-color:#000000"
         transform="translate(-46.458918,-114.82373)">
        <path
           d="m 46.903122,116.4981 h 3.751189 v 1.06467 h -0.24824 q -0.35857,0 -0.441316,0.0386 -0.132395,0.0607 -0.193076,0.17101 -0.05517,0.11033 -0.05517,0.41373 v 2.04661 l 2.399658,-2.22314 q 0.159977,-0.14894 0.193076,-0.19859 0.0331,-0.0552 0.0331,-0.0938 0,-0.0772 -0.0662,-0.11584 -0.06068,-0.0386 -0.319954,-0.0386 h -0.308922 v -1.06467 h 3.480884 v 1.06467 h -0.115846 q -0.242724,0 -0.336504,0.0276 -0.09378,0.0221 -0.231691,0.10482 -0.132395,0.0827 -0.347537,0.2703 l -1.859045,1.61081 2.217615,2.99543 q 0.286856,0.38615 0.419251,0.45787 0.176526,0.0993 0.507513,0.0993 h 0.148945 v 1.06468 h -3.883585 v -1.06468 h 0.154461 q 0.424767,0 0.51303,-0.0386 0.09378,-0.0386 0.09378,-0.0993 0,-0.0662 -0.17101,-0.31444 l -1.351531,-1.92524 -1.169489,0.99848 v 0.77782 q 0,0.28686 0.05517,0.39719 0.05516,0.11032 0.15446,0.15997 0.104813,0.0441 0.413735,0.0441 h 0.314437 v 1.06468 h -3.751189 v -1.06468 h 0.281339 q 0.325471,0 0.4358,-0.0496 0.110329,-0.0552 0.159977,-0.17101 0.04413,-0.0938 0.04413,-0.45235 v -4.20354 q 0,-0.34202 -0.04965,-0.45787 -0.04965,-0.11584 -0.159977,-0.17101 -0.110329,-0.0607 -0.397185,-0.0607 h -0.314438 z"
           id="path1042" />
        <path
           d="m 58.735918,116.4981 h 1.726651 l 2.311394,5.94122 q 0.18756,0.47441 0.330988,0.58474 0.148944,0.11033 0.540612,0.10481 v 1.06468 h -3.64086 v -1.06468 l 0.220658,-0.006 q 0.303405,0 0.424767,-0.0772 0.121362,-0.0828 0.121362,-0.19859 0,-0.0993 -0.104812,-0.40822 l -0.226175,-0.70059 h -2.344494 l -0.286855,0.77782 q -0.08826,0.24824 -0.08826,0.32547 0,0.0883 0.06068,0.15998 0.0662,0.0717 0.209625,0.10481 0.09378,0.0221 0.518547,0.0221 v 1.06468 H 55.53086 v -1.06468 q 0.286856,0 0.41925,-0.0496 0.132395,-0.0496 0.215142,-0.14895 0.08826,-0.0993 0.193076,-0.3696 z m -0.237207,4.14285 h 1.539091 l -0.750238,-2.11832 z"
           id="path1044" />
        <path
           d="m 64.086881,116.4981 h 3.12783 l 2.25623,4.49039 v -2.74719 q 0,-0.35306 -0.03861,-0.44132 -0.05517,-0.1324 -0.148945,-0.18204 -0.09378,-0.0552 -0.364086,-0.0552 h -0.375119 v -1.06467 h 3.177478 v 1.06467 h -0.353053 q -0.26479,0 -0.380635,0.0607 -0.110329,0.0607 -0.154461,0.1655 -0.04413,0.10481 -0.04413,0.45235 v 5.95225 h -1.583223 l -2.857524,-5.67092 v 3.96634 q 0,0.34202 0.03862,0.4358 0.04413,0.0938 0.148945,0.14894 0.110329,0.0552 0.375119,0.0552 h 0.369602 v 1.06468 h -3.194027 v -1.06468 h 0.330987 q 0.275823,0 0.375119,-0.0441 0.104813,-0.0496 0.165494,-0.16549 0.06068,-0.11585 0.06068,-0.34754 v -4.41316 q 0,-0.25376 -0.05516,-0.3696 -0.05517,-0.12137 -0.148944,-0.17101 -0.09378,-0.0552 -0.314438,-0.0552 h -0.413734 z"
           id="path1046" />
        <path
           d="m 72.979406,116.23882 h 0.728172 l 0.07723,0.25928 h 4.34145 l 0.09378,-0.25928 h 0.733688 l 0.954347,2.69755 -1.026061,0.35857 q -0.34202,-0.67301 -0.490964,-0.87712 -0.292372,-0.4027 -0.673008,-0.63439 -0.286856,-0.17653 -0.568195,-0.17653 -0.132395,0 -0.182043,0.0662 -0.04965,0.0607 -0.04965,0.28686 v 4.42419 q 0,0.39167 0.02758,0.49097 0.02758,0.0993 0.09378,0.15997 0.0662,0.0552 0.182043,0.0772 0.115846,0.0166 0.617843,0.0166 v 1.06468 h -3.751189 v -1.06468 h 0.226174 q 0.375119,0 0.479932,-0.0441 0.104813,-0.0496 0.159977,-0.16549 0.05517,-0.12136 0.05517,-0.49648 v -4.5235 q 0,-0.19307 -0.04413,-0.24272 -0.04413,-0.0496 -0.187559,-0.0496 -0.286856,0 -0.639909,0.21514 -0.353053,0.21515 -0.628876,0.60681 -0.110329,0.15447 -0.468899,0.86609 l -1.009511,-0.35857 z"
           id="path1048" />
        <path
           d="m 84.475697,116.3657 q 1.831463,0 2.962336,1.11432 1.13639,1.11433 1.13639,2.86304 0,1.17501 -0.518547,2.08522 -0.518546,0.91022 -1.434278,1.4067 -0.910215,0.49097 -2.201066,0.49097 -1.704584,0 -2.791326,-0.9378 -1.312916,-1.13088 -1.312916,-3.02302 0,-1.75975 1.147423,-2.87959 1.152939,-1.11984 3.011984,-1.11984 z m 0.02207,1.22465 q -0.877117,0 -1.395663,0.65646 -0.650942,0.82747 -0.650942,2.13487 0,1.3074 0.60681,2.06867 0.524063,0.65094 1.38463,0.65094 0.866084,0 1.38463,-0.65094 0.612327,-0.77782 0.612327,-2.0797 0,-0.91573 -0.26479,-1.53909 -0.259273,-0.62336 -0.706106,-0.93229 -0.446833,-0.30892 -0.970896,-0.30892 z"
           id="path1050" />
        <path
           d="m 89.368793,116.4981 h 4.744151 q 0.457866,0 0.998478,0.0827 0.54613,0.0828 0.981929,0.36409 0.441317,0.28134 0.684041,0.71162 0.242724,0.43028 0.242724,0.9709 0,0.87711 -0.628876,1.42324 -0.623359,0.54061 -1.47841,0.70611 l 1.583223,1.84249 0.0662,0.0828 q 0.154461,0.18756 0.281339,0.28134 0.126879,0.0883 0.253757,0.12688 0.126879,0.0386 0.353053,0.0386 h 0.330988 v 1.06468 h -2.465856 l -2.471372,-3.31539 h -0.639908 v 1.53358 q 0,0.39718 0.04413,0.50751 0.04413,0.10481 0.137912,0.15998 0.0993,0.0496 0.391668,0.0496 h 0.353053 v 1.06468 h -3.762222 v -1.06468 h 0.34202 q 0.270306,0 0.380635,-0.0552 0.115846,-0.0607 0.17101,-0.17653 0.02758,-0.0662 0.02758,-0.41373 v -4.33042 q 0,-0.25376 -0.04413,-0.35857 -0.03861,-0.11033 -0.132395,-0.14343 -0.132395,-0.0607 -0.303405,-0.0607 l -0.154461,0.006 h -0.286855 z m 2.835458,1.26326 v 1.99144 h 1.141906 q 0.673007,0 1.003995,-0.12136 0.336503,-0.12688 0.501997,-0.35857 0.17101,-0.23169 0.17101,-0.56268 0,-0.3034 -0.159977,-0.51854 -0.154461,-0.22066 -0.446833,-0.32547 -0.286856,-0.10482 -0.943314,-0.10482 z"
           id="path1052" />
        <path
           d="m 108.3123,116.4981 v 1.06467 l -4.07114,5.43371 h 0.47993 q 0.99296,0 1.48392,-0.18204 0.49097,-0.18756 0.9047,-0.65646 0.41925,-0.4689 0.65094,-1.15294 l 1.00951,0.34202 -1.00951,2.84649 h -5.87502 v -1.06468 l 4.08769,-5.41715 h -0.63991 q -0.65094,0 -1.04812,0.15446 -0.39719,0.15446 -0.68956,0.45786 -0.29237,0.30341 -0.8385,1.2743 l -0.9709,-0.43028 1.16949,-2.66996 z"
           id="path1054" />
        <path
           d="m 108.8474,116.4981 h 3.8229 v 1.06467 h -0.28686 q -0.3034,0 -0.38063,0.0496 -0.0772,0.0441 -0.0772,0.14894 0,0.14343 0.17653,0.43029 l 1.00951,1.67148 1.12535,-1.7432 q 0.14895,-0.22617 0.1655,-0.25375 0.0221,-0.0607 0.0221,-0.12137 0,-0.0938 -0.0662,-0.13791 -0.0607,-0.0441 -0.29238,-0.0441 h -0.39166 v -1.06467 h 3.06714 v 1.06467 q -0.4027,0.006 -0.56819,0.0938 -0.15998,0.0883 -0.38615,0.42477 l -2.05212,2.98992 v 1.37359 q 0,0.36409 0.0441,0.47442 0.0496,0.10481 0.15998,0.15998 0.11584,0.0496 0.44683,0.0496 h 0.2703 v 1.06468 h -3.75119 v -1.06468 h 0.20411 q 0.39719,0 0.50752,-0.0496 0.11033,-0.0552 0.16549,-0.17653 0.0607,-0.12688 0.0607,-0.502 v -1.20258 l -2.0466,-3.1168 q -0.24273,-0.36409 -0.42477,-0.45787 -0.13239,-0.0607 -0.52406,-0.0607 z"
           id="path1056" />
        <path
           d="m 120.0789,115.26793 h 1.06468 v 1.36808 q 0.23721,0.0717 0.39718,0.14894 0.1655,0.0717 0.44132,0.24273 l 0.20962,-0.39167 h 0.6013 l 0.64542,2.49895 -1.01502,0.29237 q -0.39719,-1.03157 -1.27982,-1.51151 v 1.58323 q 1.08674,0.30892 1.58322,0.63439 0.49648,0.31995 0.75575,0.79437 0.26479,0.4689 0.26479,0.97641 0,0.54613 -0.31443,1.05364 -0.30892,0.502 -0.91573,0.84402 -0.60681,0.33651 -1.3736,0.39167 v 1.33498 h -1.06468 v -1.42876 q -0.63439,-0.14894 -1.32395,-0.65094 l -0.26479,0.65094 h -0.60129 l -0.54061,-2.90717 1.05364,-0.25376 q 0.28686,0.62888 0.55165,0.99296 0.26478,0.35857 0.59577,0.62336 0.24273,0.1986 0.52958,0.29789 v -1.83698 q -1.18604,-0.39718 -1.62735,-0.68955 -0.44132,-0.29789 -0.69508,-0.75576 -0.25375,-0.45786 -0.25375,-0.92676 0,-0.5351 0.31444,-1.03158 0.31995,-0.49648 0.88263,-0.78885 0.56268,-0.29238 1.37911,-0.32547 z m 0,2.4493 q -0.45235,0.0607 -0.63991,0.19308 -0.2703,0.19307 -0.2703,0.46338 0,0.22617 0.19307,0.4358 0.1986,0.20963 0.71714,0.38615 z m 1.06468,5.27373 q 0.43028,-0.0552 0.68404,-0.24272 0.25927,-0.18756 0.25927,-0.50751 0,-0.28134 -0.19307,-0.48545 -0.26479,-0.27031 -0.75024,-0.41925 z"
           id="path1058" />
        <path
           d="m 124.62997,116.4981 h 3.75119 v 1.06467 h -0.24824 q -0.35857,0 -0.44131,0.0386 -0.1324,0.0607 -0.19308,0.17101 -0.0552,0.11033 -0.0552,0.41373 v 2.04661 l 2.39965,-2.22314 q 0.15998,-0.14894 0.19308,-0.19859 0.0331,-0.0552 0.0331,-0.0938 0,-0.0772 -0.0662,-0.11584 -0.0607,-0.0386 -0.31995,-0.0386 h -0.30892 v -1.06467 h 3.48088 v 1.06467 h -0.11585 q -0.24272,0 -0.3365,0.0276 -0.0938,0.0221 -0.23169,0.10482 -0.1324,0.0827 -0.34754,0.2703 l -1.85904,1.61081 2.21761,2.99543 q 0.28686,0.38615 0.41925,0.45787 0.17653,0.0993 0.50752,0.0993 h 0.14894 v 1.06468 h -3.88358 v -1.06468 h 0.15446 q 0.42476,0 0.51303,-0.0386 0.0938,-0.0386 0.0938,-0.0993 0,-0.0662 -0.17101,-0.31444 l -1.35153,-1.92524 -1.16949,0.99848 v 0.77782 q 0,0.28686 0.0552,0.39719 0.0552,0.11032 0.15446,0.15997 0.10481,0.0441 0.41374,0.0441 h 0.31443 v 1.06468 h -3.75119 v -1.06468 h 0.28134 q 0.32547,0 0.4358,-0.0496 0.11033,-0.0552 0.15998,-0.17101 0.0441,-0.0938 0.0441,-0.45235 v -4.20354 q 0,-0.34202 -0.0496,-0.45787 -0.0496,-0.11584 -0.15997,-0.17101 -0.11033,-0.0607 -0.39719,-0.0607 h -0.31444 z"
           id="path1060" />
      </g>
      <g
         aria-label="KANTOR ZY$K"
         id="text398"
         style="font-weight:bold;font-size:11.2977px;font-family:'Bookman Old Style';-inkscape-font-specification:'Bookman Old Style Bold';stroke-width:0.808831;stroke-dasharray:none;stop-color:#000000"
         transform="translate(-46.458918,-114.82373)">
        <path
           d="m 46.903122,116.4981 h 3.751189 v 1.06467 h -0.24824 q -0.35857,0 -0.441316,0.0386 -0.132395,0.0607 -0.193076,0.17101 -0.05517,0.11033 -0.05517,0.41373 v 2.04661 l 2.399658,-2.22314 q 0.159977,-0.14894 0.193076,-0.19859 0.0331,-0.0552 0.0331,-0.0938 0,-0.0772 -0.0662,-0.11584 -0.06068,-0.0386 -0.319954,-0.0386 h -0.308922 v -1.06467 h 3.480884 v 1.06467 h -0.115846 q -0.242724,0 -0.336504,0.0276 -0.09378,0.0221 -0.231691,0.10482 -0.132395,0.0827 -0.347537,0.2703 l -1.859045,1.61081 2.217615,2.99543 q 0.286856,0.38615 0.419251,0.45787 0.176526,0.0993 0.507513,0.0993 h 0.148945 v 1.06468 h -3.883585 v -1.06468 h 0.154461 q 0.424767,0 0.51303,-0.0386 0.09378,-0.0386 0.09378,-0.0993 0,-0.0662 -0.17101,-0.31444 l -1.351531,-1.92524 -1.169489,0.99848 v 0.77782 q 0,0.28686 0.05517,0.39719 0.05516,0.11032 0.15446,0.15997 0.104813,0.0441 0.413735,0.0441 h 0.314437 v 1.06468 h -3.751189 v -1.06468 h 0.281339 q 0.325471,0 0.4358,-0.0496 0.110329,-0.0552 0.159977,-0.17101 0.04413,-0.0938 0.04413,-0.45235 v -4.20354 q 0,-0.34202 -0.04965,-0.45787 -0.04965,-0.11584 -0.159977,-0.17101 -0.110329,-0.0607 -0.397185,-0.0607 h -0.314438 z"
           id="path1063" />
        <path
           d="m 58.735918,116.4981 h 1.726651 l 2.311394,5.94122 q 0.18756,0.47441 0.330988,0.58474 0.148944,0.11033 0.540612,0.10481 v 1.06468 h -3.64086 v -1.06468 l 0.220658,-0.006 q 0.303405,0 0.424767,-0.0772 0.121362,-0.0828 0.121362,-0.19859 0,-0.0993 -0.104812,-0.40822 l -0.226175,-0.70059 h -2.344494 l -0.286855,0.77782 q -0.08826,0.24824 -0.08826,0.32547 0,0.0883 0.06068,0.15998 0.0662,0.0717 0.209625,0.10481 0.09378,0.0221 0.518547,0.0221 v 1.06468 H 55.53086 v -1.06468 q 0.286856,0 0.41925,-0.0496 0.132395,-0.0496 0.215142,-0.14895 0.08826,-0.0993 0.193076,-0.3696 z m -0.237207,4.14285 h 1.539091 l -0.750238,-2.11832 z"
           id="path1065" />
        <path
           d="m 64.086881,116.4981 h 3.12783 l 2.25623,4.49039 v -2.74719 q 0,-0.35306 -0.03861,-0.44132 -0.05517,-0.1324 -0.148945,-0.18204 -0.09378,-0.0552 -0.364086,-0.0552 h -0.375119 v -1.06467 h 3.177478 v 1.06467 h -0.353053 q -0.26479,0 -0.380635,0.0607 -0.110329,0.0607 -0.154461,0.1655 -0.04413,0.10481 -0.04413,0.45235 v 5.95225 h -1.583223 l -2.857524,-5.67092 v 3.96634 q 0,0.34202 0.03862,0.4358 0.04413,0.0938 0.148945,0.14894 0.110329,0.0552 0.375119,0.0552 h 0.369602 v 1.06468 h -3.194027 v -1.06468 h 0.330987 q 0.275823,0 0.375119,-0.0441 0.104813,-0.0496 0.165494,-0.16549 0.06068,-0.11585 0.06068,-0.34754 v -4.41316 q 0,-0.25376 -0.05516,-0.3696 -0.05517,-0.12137 -0.148944,-0.17101 -0.09378,-0.0552 -0.314438,-0.0552 h -0.413734 z"
           id="path1067" />
        <path
           d="m 72.979406,116.23882 h 0.728172 l 0.07723,0.25928 h 4.34145 l 0.09378,-0.25928 h 0.733688 l 0.954347,2.69755 -1.026061,0.35857 q -0.34202,-0.67301 -0.490964,-0.87712 -0.292372,-0.4027 -0.673008,-0.63439 -0.286856,-0.17653 -0.568195,-0.17653 -0.132395,0 -0.182043,0.0662 -0.04965,0.0607 -0.04965,0.28686 v 4.42419 q 0,0.39167 0.02758,0.49097 0.02758,0.0993 0.09378,0.15997 0.0662,0.0552 0.182043,0.0772 0.115846,0.0166 0.617843,0.0166 v 1.06468 h -3.751189 v -1.06468 h 0.226174 q 0.375119,0 0.479932,-0.0441 0.104813,-0.0496 0.159977,-0.16549 0.05517,-0.12136 0.05517,-0.49648 v -4.5235 q 0,-0.19307 -0.04413,-0.24272 -0.04413,-0.0496 -0.187559,-0.0496 -0.286856,0 -0.639909,0.21514 -0.353053,0.21515 -0.628876,0.60681 -0.110329,0.15447 -0.468899,0.86609 l -1.009511,-0.35857 z"
           id="path1069" />
        <path
           d="m 84.475697,116.3657 q 1.831463,0 2.962336,1.11432 1.13639,1.11433 1.13639,2.86304 0,1.17501 -0.518547,2.08522 -0.518546,0.91022 -1.434278,1.4067 -0.910215,0.49097 -2.201066,0.49097 -1.704584,0 -2.791326,-0.9378 -1.312916,-1.13088 -1.312916,-3.02302 0,-1.75975 1.147423,-2.87959 1.152939,-1.11984 3.011984,-1.11984 z m 0.02207,1.22465 q -0.877117,0 -1.395663,0.65646 -0.650942,0.82747 -0.650942,2.13487 0,1.3074 0.60681,2.06867 0.524063,0.65094 1.38463,0.65094 0.866084,0 1.38463,-0.65094 0.612327,-0.77782 0.612327,-2.0797 0,-0.91573 -0.26479,-1.53909 -0.259273,-0.62336 -0.706106,-0.93229 -0.446833,-0.30892 -0.970896,-0.30892 z"
           id="path1071" />
        <path
           d="m 89.368793,116.4981 h 4.744151 q 0.457866,0 0.998478,0.0827 0.54613,0.0828 0.981929,0.36409 0.441317,0.28134 0.684041,0.71162 0.242724,0.43028 0.242724,0.9709 0,0.87711 -0.628876,1.42324 -0.623359,0.54061 -1.47841,0.70611 l 1.583223,1.84249 0.0662,0.0828 q 0.154461,0.18756 0.281339,0.28134 0.126879,0.0883 0.253757,0.12688 0.126879,0.0386 0.353053,0.0386 h 0.330988 v 1.06468 h -2.465856 l -2.471372,-3.31539 h -0.639908 v 1.53358 q 0,0.39718 0.04413,0.50751 0.04413,0.10481 0.137912,0.15998 0.0993,0.0496 0.391668,0.0496 h 0.353053 v 1.06468 h -3.762222 v -1.06468 h 0.34202 q 0.270306,0 0.380635,-0.0552 0.115846,-0.0607 0.17101,-0.17653 0.02758,-0.0662 0.02758,-0.41373 v -4.33042 q 0,-0.25376 -0.04413,-0.35857 -0.03861,-0.11033 -0.132395,-0.14343 -0.132395,-0.0607 -0.303405,-0.0607 l -0.154461,0.006 h -0.286855 z m 2.835458,1.26326 v 1.99144 h 1.141906 q 0.673007,0 1.003995,-0.12136 0.336503,-0.12688 0.501997,-0.35857 0.17101,-0.23169 0.17101,-0.56268 0,-0.3034 -0.159977,-0.51854 -0.154461,-0.22066 -0.446833,-0.32547 -0.286856,-0.10482 -0.943314,-0.10482 z"
           id="path1073" />
        <path
           d="m 108.3123,116.4981 v 1.06467 l -4.07114,5.43371 h 0.47993 q 0.99296,0 1.48392,-0.18204 0.49097,-0.18756 0.9047,-0.65646 0.41925,-0.4689 0.65094,-1.15294 l 1.00951,0.34202 -1.00951,2.84649 h -5.87502 v -1.06468 l 4.08769,-5.41715 h -0.63991 q -0.65094,0 -1.04812,0.15446 -0.39719,0.15446 -0.68956,0.45786 -0.29237,0.30341 -0.8385,1.2743 l -0.9709,-0.43028 1.16949,-2.66996 z"
           id="path1075" />
        <path
           d="m 108.8474,116.4981 h 3.8229 v 1.06467 h -0.28686 q -0.3034,0 -0.38063,0.0496 -0.0772,0.0441 -0.0772,0.14894 0,0.14343 0.17653,0.43029 l 1.00951,1.67148 1.12535,-1.7432 q 0.14895,-0.22617 0.1655,-0.25375 0.0221,-0.0607 0.0221,-0.12137 0,-0.0938 -0.0662,-0.13791 -0.0607,-0.0441 -0.29238,-0.0441 h -0.39166 v -1.06467 h 3.06714 v 1.06467 q -0.4027,0.006 -0.56819,0.0938 -0.15998,0.0883 -0.38615,0.42477 l -2.05212,2.98992 v 1.37359 q 0,0.36409 0.0441,0.47442 0.0496,0.10481 0.15998,0.15998 0.11584,0.0496 0.44683,0.0496 h 0.2703 v 1.06468 h -3.75119 v -1.06468 h 0.20411 q 0.39719,0 0.50752,-0.0496 0.11033,-0.0552 0.16549,-0.17653 0.0607,-0.12688 0.0607,-0.502 v -1.20258 l -2.0466,-3.1168 q -0.24273,-0.36409 -0.42477,-0.45787 -0.13239,-0.0607 -0.52406,-0.0607 z"
           id="path1077" />
        <path
           d="m 120.0789,115.26793 h 1.06468 v 1.36808 q 0.23721,0.0717 0.39718,0.14894 0.1655,0.0717 0.44132,0.24273 l 0.20962,-0.39167 h 0.6013 l 0.64542,2.49895 -1.01502,0.29237 q -0.39719,-1.03157 -1.27982,-1.51151 v 1.58323 q 1.08674,0.30892 1.58322,0.63439 0.49648,0.31995 0.75575,0.79437 0.26479,0.4689 0.26479,0.97641 0,0.54613 -0.31443,1.05364 -0.30892,0.502 -0.91573,0.84402 -0.60681,0.33651 -1.3736,0.39167 v 1.33498 h -1.06468 v -1.42876 q -0.63439,-0.14894 -1.32395,-0.65094 l -0.26479,0.65094 h -0.60129 l -0.54061,-2.90717 1.05364,-0.25376 q 0.28686,0.62888 0.55165,0.99296 0.26478,0.35857 0.59577,0.62336 0.24273,0.1986 0.52958,0.29789 v -1.83698 q -1.18604,-0.39718 -1.62735,-0.68955 -0.44132,-0.29789 -0.69508,-0.75576 -0.25375,-0.45786 -0.25375,-0.92676 0,-0.5351 0.31444,-1.03158 0.31995,-0.49648 0.88263,-0.78885 0.56268,-0.29238 1.37911,-0.32547 z m 0,2.4493 q -0.45235,0.0607 -0.63991,0.19308 -0.2703,0.19307 -0.2703,0.46338 0,0.22617 0.19307,0.4358 0.1986,0.20963 0.71714,0.38615 z m 1.06468,5.27373 q 0.43028,-0.0552 0.68404,-0.24272 0.25927,-0.18756 0.25927,-0.50751 0,-0.28134 -0.19307,-0.48545 -0.26479,-0.27031 -0.75024,-0.41925 z"
           id="path1079" />
        <path
           d="m 124.62997,116.4981 h 3.75119 v 1.06467 h -0.24824 q -0.35857,0 -0.44131,0.0386 -0.1324,0.0607 -0.19308,0.17101 -0.0552,0.11033 -0.0552,0.41373 v 2.04661 l 2.39965,-2.22314 q 0.15998,-0.14894 0.19308,-0.19859 0.0331,-0.0552 0.0331,-0.0938 0,-0.0772 -0.0662,-0.11584 -0.0607,-0.0386 -0.31995,-0.0386 h -0.30892 v -1.06467 h 3.48088 v 1.06467 h -0.11585 q -0.24272,0 -0.3365,0.0276 -0.0938,0.0221 -0.23169,0.10482 -0.1324,0.0827 -0.34754,0.2703 l -1.85904,1.61081 2.21761,2.99543 q 0.28686,0.38615 0.41925,0.45787 0.17653,0.0993 0.50752,0.0993 h 0.14894 v 1.06468 h -3.88358 v -1.06468 h 0.15446 q 0.42476,0 0.51303,-0.0386 0.0938,-0.0386 0.0938,-0.0993 0,-0.0662 -0.17101,-0.31444 l -1.35153,-1.92524 -1.16949,0.99848 v 0.77782 q 0,0.28686 0.0552,0.39719 0.0552,0.11032 0.15446,0.15997 0.10481,0.0441 0.41374,0.0441 h 0.31443 v 1.06468 h -3.75119 v -1.06468 h 0.28134 q 0.32547,0 0.4358,-0.0496 0.11033,-0.0552 0.15998,-0.17101 0.0441,-0.0938 0.0441,-0.45235 v -4.20354 q 0,-0.34202 -0.0496,-0.45787 -0.0496,-0.11584 -0.15997,-0.17101 -0.11033,-0.0607 -0.39719,-0.0607 h -0.31444 z"
           id="path1081" />
      </g>
    </g>
  </g>
</svg>
